# xmcd CD database file
#
# Track frame offsets:
#	150
#	39007
#	60537
#	81907
#	104105
#	132907
#	149735
#	165757
#	186840
#	214422
#	248542
#	265737
#	275335
#	290332
#	314857
#
# Disc length: 4454 seconds
#
# Revision: 0
# Processed by: cddbd v1.4PL0 Copyright (c) Steve Scherf et al.
# Submitted via: CDex 1.51
#
DISCID=e111640f
DTITLE=Various Artist - The Sampler [CD2]
DYEAR=1996
DGENRE=Jazz
TTITLE0=Art Blakey: Second Thoughts
TTITLE1=Ernestine Anderson: Someone Else Is Steppin' Out
TTITLE2=Herb Ellis: Look For the Silver Lining
TTITLE3=Poncho Sanchez: La Familia
TTITLE4=Gene Harris: Old Funky Gene's
TTITLE5=Kenny Burrell: Lotus Blossom
TTITLE6=Frank Capp Juggernaut: Take the A Train
TTITLE7=The L.A. 4: Rondo Expresssivo
TTITLE8=Woody Herman: The Dolphin
TTITLE9=Ray Brown: The Real Blues
TTITLE10=Tania Maria: Bela Be Bela
TTITLE11=Charlie Byrd: Mama, I'll Be Home Someday
TTITLE12=Marian McPartland: Threnody ( A Lament)
TTITLE13=Jim Hall: All Across the City
TTITLE14=Louie Bellson: Our Manne Shelly
EXTD=YEAR: 1996
EXTT0=
EXTT1=
EXTT2=
EXTT3=
EXTT4=
EXTT5=
EXTT6=
EXTT7=
EXTT8=
EXTT9=
EXTT10=
EXTT11=
EXTT12=
EXTT13=
EXTT14=
PLAYORDER=
